<?xml version="1.0" encoding="UTF-8"?>
<!-- Created with Inkscape (http://www.inkscape.org/) -->
<svg width="165.33" height="234.67" inkscape:version="1.2.2 (b0a8486, 2022-12-01)" sodipodi:docname="ieee_tii_login.svg" version="1.1" viewBox="0 0 165.33 234.67" xmlns="http://www.w3.org/2000/svg" xmlns:inkscape="http://www.inkscape.org/namespaces/inkscape" xmlns:sodipodi="http://sodipodi.sourceforge.net/DTD/sodipodi-0.dtd">
 <sodipodi:namedview bordercolor="#000000" borderopacity="0.25" inkscape:current-layer="g17" inkscape:cx="82.830252" inkscape:cy="117.56183" inkscape:deskcolor="#d1d1d1" inkscape:pagecheckerboard="0" inkscape:pageopacity="0.0" inkscape:showpageshadow="2" inkscape:window-height="1387" inkscape:window-maximized="1" inkscape:window-width="2524" inkscape:window-x="1920" inkscape:window-y="25" inkscape:zoom="4.3764203" pagecolor="#ffffff" showgrid="false">
  <inkscape:page x="0" y="0" width="165.33333" height="234.66667"/>
 </sodipodi:namedview>
 <g transform="matrix(1.3333 0 0 1.3333 0 9.2e-6)" inkscape:groupmode="layer" inkscape:label="Page 1">
  <path d="m0 0h124v176h-124z" fill="#940000"/>
  <g fill="#fffe40">
   <path d="m26.68 36.13c-8.1-1.52-10.46 10.6-11.55 16.02-0.13 0.61-0.5 0.93-1.12 0.97l-1.04 0.06c-0.68 0.04-1-0.28-0.97-0.96l0.99-18.97c0.01-0.17 0.09-0.26 0.26-0.26l39.27 0.01c0.28 0 0.52 0.23 0.53 0.51l0.9 18.75c0.02 0.49-0.22 0.75-0.71 0.76l-1.53 0.04c-0.42 0.01-0.77-0.3-0.83-0.72-0.62-4.77-1.84-10.29-5.1-13.94-1.84-2.07-3.86-2.83-6.06-2.3-0.98 0.23-1.67 1.11-1.68 2.11-0.06 14.07-0.06 27.69 0.01 40.84 0.01 1.42-0.33 3.6 1.72 3.8 1.45 0.15 2.86 0.2 4.21 0.15 0.53-0.02 0.99 0.39 1.03 0.92l0.08 1.13c0.04 0.63-0.26 0.94-0.89 0.94l-22.2-0.02c-0.99 0-1.4-0.49-1.21-1.47l0.1-0.51c0.11-0.6 0.47-0.91 1.08-0.92 2.15-0.06 5.97 0.66 5.98-2.57 0.07-12.79 0.07-26.37 0.02-40.75 0-1.04-0.16-2.02-0.49-2.94-0.12-0.35-0.43-0.61-0.8-0.68z"/>
   <path d="m63.84 36.18-3.92-0.32c-0.51-0.04-0.93-0.42-1.01-0.93l-0.08-0.48c-0.15-0.95 0.25-1.43 1.22-1.43l19.93-0.03c0.67 0 1.02 0.33 1.07 0.99l0.08 1.01c0.04 0.51-0.36 0.94-0.87 0.95l-3.04 0.07c-1.48 0.03-2.22 0.79-2.22 2.27v42.53c0 1.37 0.69 2.09 2.06 2.14l2.92 0.1c0.53 0.02 0.96 0.41 1.04 0.93l0.1 0.75c0.13 0.85-0.24 1.27-1.1 1.27l-19.8-0.02c-1.19-0.01-1.66-0.59-1.41-1.76l0.07-0.32c0.12-0.55 0.65-0.92 1.21-0.85 3.24 0.42 4.86-0.51 4.87-2.8 0.05-13.15 0.06-25.99 0.02-38.5-0.01-1.77-0.14-3.4-0.4-4.89-0.07-0.42-0.32-0.65-0.74-0.68z"/>
   <path d="m92.57 82.11c0.25-0.44 0.38-0.93 0.38-1.43 0.08-12.81 0.08-27.09 0-42.85-0.01-0.85-0.66-1.56-1.51-1.65l-3.65-0.37c-0.62-0.06-0.93-0.4-0.93-1.03l-0.01-0.56c0-0.65 0.53-1.18 1.18-1.18l19.96-0.06c0.56 0 1.03 0.44 1.06 1.01l0.05 0.9c0.03 0.69-0.3 1.04-0.99 1.05l-3.28 0.07c-0.99 0.02-1.79 0.83-1.79 1.82-0.05 13.95-0.06 28.18-0.03 42.69 0.01 2.84 2.92 2.46 4.84 2.53 0.62 0.02 1.13 0.5 1.18 1.12l0.06 0.61c0.05 0.66-0.46 1.22-1.12 1.22l-19.97-0.05c-0.98 0-1.37-0.48-1.18-1.45l0.08-0.42c0.13-0.63 0.51-0.95 1.14-0.97 2.68-0.07 4.19-0.41 4.53-1z"/>
  </g>
  <g fill="#fe8304">
   <path d="m35.13 114.87c-0.78-2.25 0.14-4.67 2.43-5.54 0.32-0.13 0.55-0.43 0.58-0.77l0.15-1.7c0.01-0.19 0.12-0.28 0.31-0.26l0.28 0.02c0.04 0.01 0.06 0.04 0.05 0.08-0.49 1.59-0.02 2.58 1.42 2.99 0.69 0.2 1.26 0.69 1.54 1.35 1.08 2.53 0.45 4.29-1.89 5.26-1.47 0.61-4.24 0.38-4.87-1.43z"/>
   <path d="m86.43 113.1c0 0.145-0.12 0.265-0.2596 0.2604l-39.62 0.0692c-0.1405-0.0046-0.2605-0.1146-0.2605-0.2596v-0.02c0-0.145 0.12-0.265 0.2596-0.2604l39.62-0.0692c0.1405 0.0046 0.2605 0.1146 0.2605 0.2596z"/>
   <path d="m56.34 124.54c-3.23-3.32-8.11-1.78-7.89 3.27 0.17 3.82 3.16 8.31 7.52 7.08 1.51-0.42 2.61-1.63 3.81-2.6 0.37-0.29 0.78-0.43 1.24-0.43l3.97 0.03c0.45 0.01 0.61 0.22 0.49 0.65-2.98 10.63-15.06 11.98-20.96 2.87-1.76-2.71-0.89-6.23-1.05-9.33-0.07-1.37 0.26-2.64 1-3.79 4.88-7.64 15.08-6.57 19.65 0.69 0.26 0.42 0.21 0.96-0.14 1.31l-6.61 6.74c-0.53 0.54-1.06 0.54-1.61 0.01l-1.77-1.73c-0.43-0.43-0.43-0.85 0-1.27l2.34-2.29c0.34-0.33 0.34-0.87 0.01-1.21z"/>
   <path d="m80.78 129.5-13.56 0.01c-0.47 0-0.68-0.23-0.65-0.69 0.63-8.27 6.41-13.55 14.51-11.13 3.52 1.05 5.91 3.45 7.18 7.2 0.15 0.45-0.01 0.68-0.49 0.69l-4.81 0.02c-0.49 0.01-0.94-0.25-1.18-0.67l-0.78-1.37c-0.57-0.99-1.69-1.53-2.82-1.35-2.54 0.41-4.14 2.02-4.8 4.84-0.09 0.38 0.21 0.75 0.6 0.75l13.99-0.04c0.33 0 0.59 0.28 0.56 0.61-0.17 1.73-0.49 3.39-0.94 4.97-2.01 7.08-9.55 10.83-15.69 5.71-2.09-1.73-3.61-3.96-4.55-6.68-0.14-0.41 0.01-0.62 0.44-0.62l5.16-0.03c0.4-0.01 0.77 0.19 0.98 0.53 2.54 3.97 5.66 4.34 8.11-0.74 0.65-1.34 0.23-2.01-1.26-2.01z"/>
   <path d="m35.21 135.81 0.12-16.95c0.01-0.53 0.44-0.96 0.97-0.96l4.95-0.02c0.54 0 0.98 0.44 0.97 0.98l-0.17 21.44c-0.01 0.84-1.01 1.28-1.63 0.71l-4.89-4.48c-0.2-0.18-0.32-0.45-0.32-0.72z"/>
   <path d="m88.99 144.24c0 0.7-0.56 1.26-1.26 1.26h-52.64c-0.7 0-1.26-0.56-1.26-1.26v-0.22c0-0.7 0.56-1.26 1.26-1.26h52.64c0.7 0 1.26 0.56 1.26 1.26z"/>
  </g>
 </g>
</svg>
