<?xml version="1.0" encoding="UTF-8" standalone="no"?>
<!DOCTYPE svg PUBLIC "-//W3C//DTD SVG 1.1//EN" "http://www.w3.org/Graphics/SVG/1.1/DTD/svg11.dtd">
<svg xmlns="http://www.w3.org/2000/svg" version="1.1" viewBox="0.00 0.00 875.00 419.00">
<path fill="#4a7e67" d="
  M 660.50 18.15
  L 660.47 382.50
  L 449.43 382.49
  A 0.78 0.78 0.0 0 0 448.65 383.24
  C 448.56 385.24 448.98 387.86 448.13 389.64
  C 447.27 391.45 445.32 392.74 443.28 392.74
  Q 371.76 392.71 300.07 392.71
  C 298.01 392.71 295.98 391.59 295.07 389.73
  C 294.26 388.05 294.62 385.13 294.61 383.14
  A 0.66 0.66 0.0 0 0 293.95 382.49
  L 83.23 382.48
  Q 82.67 382.48 82.67 381.92
  L 82.62 18.22
  Q 91.33 6.14 105.72 2.44
  Q 111.37 0.98 119.20 0.98
  Q 374.05 0.84 626.80 0.87
  Q 631.64 0.87 637.32 2.37
  Q 651.44 6.09 660.50 18.15
  Z"
/>
<clipPath id="clipping-path-1">
<path d="
  M 104.08 40.01
  Q 103.91 39.98 103.76 40.05
  Q 103.39 40.23 103.39 40.64
  L 103.42 68.20
  L 103.42 110.72
  L 103.46 118.87
  L 103.40 185.21
  L 103.47 193.47
  L 103.42 248.74
  L 103.47 257.30
  L 103.42 334.26
  Q 102.78 338.23 103.56 342.44
  L 103.38 356.93
  L 103.26 369.49
  A 0.50 0.50 0.0 0 0 103.76 369.99
  L 639.25 370.00
  Q 639.66 370.00 639.66 369.59
  L 639.73 356.72
  L 639.73 68.29
  L 639.53 40.01
  L 639.71 29.73
  A 0.44 0.43 0.6 0 0 639.27 29.29
  L 104.02 29.33
  Q 103.52 29.33 103.47 29.83
  Q 102.94 35.20 104.08 40.01
  Z"/>
</clipPath>
<g stroke-width="5.00" fill="none" stroke-linecap="butt" clip-path="url(#clipping-path-1)">
<path stroke="#646563" vector-effect="non-scaling-stroke" d="
  M 639.53 40.01
  L 104.08 40.01"
/>
<path stroke="#1e201a" vector-effect="non-scaling-stroke" d="
  M 639.73 68.29
  Q 639.24 69.20 638.32 68.12
  A 1.04 1.04 0.0 0 0 637.51 67.76
  Q 636.07 67.80 634.74 67.80
  Q 427.42 68.13 190.34 67.92
  A 1.35 1.34 -15.2 0 1 189.18 67.26
  L 183.91 58.36
  A 4.24 4.24 0.0 0 0 180.26 56.28
  L 124.81 56.38
  A 4.17 4.17 0.0 0 0 121.22 58.43
  L 115.92 67.34
  A 1.30 1.30 0.0 0 1 114.82 67.98
  L 103.42 68.20"
/>
<path stroke="#3f3f3c" vector-effect="non-scaling-stroke" d="
  M 639.73 356.72
  L 103.38 356.93"
/>
<path stroke="#3f3f3c" vector-effect="non-scaling-stroke" d="
  M 103.56 342.44
  L 122.40 342.47"
/>
<path stroke="#6d6e6b" vector-effect="non-scaling-stroke" d="
  M 122.40 342.47
  L 132.18 342.45"
/>
<path stroke="#3f3f3c" vector-effect="non-scaling-stroke" d="
  M 132.18 342.45
  L 142.31 342.49
  A 0.26 0.26 0.0 0 0 142.57 342.23
  L 142.54 334.52
  Q 142.54 334.27 142.28 334.27
  L 132.32 334.35"
/>
<path stroke="#6d6e6b" vector-effect="non-scaling-stroke" d="
  M 132.32 334.35
  L 122.43 334.28"
/>
<path stroke="#3f3f3c" vector-effect="non-scaling-stroke" d="
  M 122.43 334.28
  L 103.42 334.26"
/>
<path stroke="#3f3f3c" vector-effect="non-scaling-stroke" d="
  M 103.47 257.30
  L 122.44 257.36"
/>
<path stroke="#6d6e6b" vector-effect="non-scaling-stroke" d="
  M 122.44 257.36
  L 132.07 257.41"
/>
<path stroke="#3f3f3c" vector-effect="non-scaling-stroke" d="
  M 132.07 257.41
  L 141.93 257.37
  Q 142.51 257.37 142.52 256.78
  L 142.61 249.55
  A 0.54 0.53 90.0 0 0 142.08 249.01
  L 131.95 249.03"
/>
<path stroke="#6d6e6b" vector-effect="non-scaling-stroke" d="
  M 131.95 249.03
  L 122.62 248.89"
/>
<path stroke="#3f3f3c" vector-effect="non-scaling-stroke" d="
  M 122.62 248.89
  Q 112.86 249.57 103.42 248.74"
/>
<path stroke="#3f3f3c" vector-effect="non-scaling-stroke" d="
  M 103.47 193.47
  L 122.42 193.47"
/>
<path stroke="#6d6e6b" vector-effect="non-scaling-stroke" d="
  M 122.42 193.47
  L 132.11 193.47"
/>
<path stroke="#3f3f3c" vector-effect="non-scaling-stroke" d="
  M 132.11 193.47
  L 142.25 193.49
  Q 142.52 193.49 142.52 193.22
  L 142.54 185.53
  Q 142.55 185.25 142.27 185.25
  L 132.17 185.31"
/>
<path stroke="#6d6e6b" vector-effect="non-scaling-stroke" d="
  M 132.17 185.31
  L 122.55 185.24"
/>
<path stroke="#3f3f3c" vector-effect="non-scaling-stroke" d="
  M 122.55 185.24
  L 103.40 185.21"
/>
<path stroke="#3f3f3c" vector-effect="non-scaling-stroke" d="
  M 103.46 118.87
  L 122.47 118.90"
/>
<path stroke="#6d6e6b" vector-effect="non-scaling-stroke" d="
  M 122.47 118.90
  L 132.12 118.94"
/>
<path stroke="#3f3f3c" vector-effect="non-scaling-stroke" d="
  M 132.12 118.94
  L 142.24 118.98
  Q 142.53 118.99 142.53 118.70
  L 142.66 111.00
  A 0.35 0.35 0.0 0 0 142.30 110.64
  L 132.24 110.72"
/>
<path stroke="#6d6e6b" vector-effect="non-scaling-stroke" d="
  M 132.24 110.72
  L 122.44 110.66"
/>
<path stroke="#3f3f3c" vector-effect="non-scaling-stroke" d="
  M 122.44 110.66
  L 103.42 110.72"
/>
<path stroke="#858585" vector-effect="non-scaling-stroke" d="
  M 131.95 249.03
  L 132.07 257.41"
/>
<path stroke="#858585" vector-effect="non-scaling-stroke" d="
  M 122.62 248.89
  L 122.44 257.36"
/>
<path stroke="#858585" vector-effect="non-scaling-stroke" d="
  M 132.32 334.35
  L 132.18 342.45"
/>
<path stroke="#858585" vector-effect="non-scaling-stroke" d="
  M 132.24 110.72
  L 132.12 118.94"
/>
<path stroke="#858585" vector-effect="non-scaling-stroke" d="
  M 132.17 185.31
  L 132.11 193.47"
/>
<path stroke="#858585" vector-effect="non-scaling-stroke" d="
  M 122.44 110.66
  L 122.47 118.90"
/>
<path stroke="#858585" vector-effect="non-scaling-stroke" d="
  M 122.43 334.28
  L 122.40 342.47"
/>
<path stroke="#858585" vector-effect="non-scaling-stroke" d="
  M 122.55 185.24
  L 122.42 193.47"
/>
</g>
<circle fill="#5cbd87" cx="371.56" cy="15.02" r="9.55"/>
<path fill="#3c6652" d="
  M 660.50 18.15
  Q 668.59 28.97 668.59 42.75
  Q 668.58 175.87 668.59 308.99
  C 668.59 309.65 668.25 310.00 668.25 310.50
  Q 668.26 346.56 668.26 382.71
  L 660.47 382.50
  L 660.50 18.15
  Z"
/>
<path fill="#5cbd87" d="
  M 82.62 18.22
  L 82.67 381.92
  Q 82.67 382.48 83.23 382.48
  L 293.95 382.49
  A 0.66 0.66 0.0 0 1 294.61 383.14
  C 294.62 385.13 294.26 388.05 295.07 389.73
  C 295.98 391.59 298.01 392.71 300.07 392.71
  Q 371.76 392.71 443.28 392.74
  C 445.32 392.74 447.27 391.45 448.13 389.64
  C 448.98 387.86 448.56 385.24 448.65 383.24
  A 0.78 0.78 0.0 0 1 449.43 382.49
  L 660.47 382.50
  L 668.26 382.71
  L 732.93 382.73
  Q 733.63 382.73 733.49 383.42
  C 733.15 385.12 734.02 386.19 734.01 387.88
  Q 733.99 392.96 734.02 398.23
  Q 734.02 398.79 733.65 399.21
  Q 733.20 399.71 733.30 400.28
  Q 733.41 400.99 732.70 400.98
  L 731.83 400.97
  Q 730.78 400.42 729.50 400.42
  Q 373.88 400.43 18.25 400.44
  Q 14.59 400.44 9.72 400.16
  L 9.57 383.21
  Q 9.56 382.74 10.04 382.74
  L 74.04 382.74
  Q 74.61 382.74 74.61 382.16
  Q 74.48 344.80 74.64 311.02
  Q 74.64 310.42 74.33 309.95
  A 1.67 1.59 -62.7 0 1 74.07 309.06
  Q 74.04 175.41 74.08 41.75
  Q 74.08 28.97 82.62 18.22
  Z"
/>
<path fill="#b3b3b3" d="
  M 639.53 40.01
  L 104.08 40.01
  Q 102.94 35.20 103.47 29.83
  Q 103.52 29.33 104.02 29.33
  L 639.27 29.29
  A 0.44 0.43 0.6 0 1 639.71 29.73
  L 639.53 40.01
  Z"
/>
<path fill="#151712" d="
  M 104.08 40.01
  L 639.53 40.01
  L 639.73 68.29
  Q 639.24 69.20 638.32 68.12
  A 1.04 1.04 0.0 0 0 637.51 67.76
  Q 636.07 67.80 634.74 67.80
  Q 427.42 68.13 190.34 67.92
  A 1.35 1.34 -15.2 0 1 189.18 67.26
  L 183.91 58.36
  A 4.24 4.24 0.0 0 0 180.26 56.28
  L 124.81 56.38
  A 4.17 4.17 0.0 0 0 121.22 58.43
  L 115.92 67.34
  A 1.30 1.30 0.0 0 1 114.82 67.98
  L 103.42 68.20
  L 103.39 40.64
  Q 103.39 40.23 103.76 40.05
  Q 103.91 39.98 104.08 40.01
  Z"
/>
<path fill="#272822" d="
  M 639.73 68.29
  L 639.73 356.72
  L 103.38 356.93
  L 103.56 342.44
  L 122.40 342.47
  L 132.18 342.45
  L 142.31 342.49
  A 0.26 0.26 0.0 0 0 142.57 342.23
  L 142.54 334.52
  Q 142.54 334.27 142.28 334.27
  L 132.32 334.35
  L 122.43 334.28
  L 103.42 334.26
  L 103.47 257.30
  L 122.44 257.36
  L 132.07 257.41
  L 141.93 257.37
  Q 142.51 257.37 142.52 256.78
  L 142.61 249.55
  A 0.54 0.53 90.0 0 0 142.08 249.01
  L 131.95 249.03
  L 122.62 248.89
  Q 112.86 249.57 103.42 248.74
  L 103.47 193.47
  L 122.42 193.47
  L 132.11 193.47
  L 142.25 193.49
  Q 142.52 193.49 142.52 193.22
  L 142.54 185.53
  Q 142.55 185.25 142.27 185.25
  L 132.17 185.31
  L 122.55 185.24
  L 103.40 185.21
  L 103.46 118.87
  L 122.47 118.90
  L 132.12 118.94
  L 142.24 118.98
  Q 142.53 118.99 142.53 118.70
  L 142.66 111.00
  A 0.35 0.35 0.0 0 0 142.30 110.64
  L 132.24 110.72
  L 122.44 110.66
  L 103.42 110.72
  L 103.42 68.20
  L 114.82 67.98
  A 1.30 1.30 0.0 0 0 115.92 67.34
  L 121.22 58.43
  A 4.17 4.17 0.0 0 1 124.81 56.38
  L 180.26 56.28
  A 4.24 4.24 0.0 0 1 183.91 58.36
  L 189.18 67.26
  A 1.35 1.34 -15.2 0 0 190.34 67.92
  Q 427.42 68.13 634.74 67.80
  Q 636.07 67.80 637.51 67.76
  A 1.04 1.04 0.0 0 1 638.32 68.12
  Q 639.24 69.20 639.73 68.29
  Z"
/>
<rect fill="#565656" x="124.51" y="60.49" width="42.26" height="5.76" rx="0.51"/>
<circle fill="#565656" cx="177.79" cy="63.34" r="2.73"/>
<rect fill="#b3b3b3" x="-4.82" y="-4.17" transform="translate(127.31,82.92) rotate(-0.2)" width="9.64" height="8.34" rx="0.48"/>
<rect fill="#4fc2f8" x="145.44" y="78.75" width="22.46" height="8.34" rx="0.42"/>
<rect fill="#99fe01" x="173.48" y="78.77" width="64.42" height="8.26" rx="0.40"/>
<rect fill="#ff0166" x="243.51" y="78.78" width="27.12" height="8.22" rx="0.43"/>
<rect fill="#4fc2f8" x="276.26" y="78.75" width="27.24" height="8.30" rx="0.49"/>
<rect fill="#ffffff" x="309.02" y="78.76" width="107.96" height="8.24" rx="0.47"/>
<rect fill="#4fc2f8" x="422.51" y="78.75" width="22.76" height="8.28" rx="0.44"/>
<rect fill="#ffffff" x="450.74" y="78.75" width="34.76" height="8.26" rx="0.34"/>
<rect fill="#b3b3b3" x="-4.84" y="-4.16" transform="translate(127.33,93.55) rotate(0.1)" width="9.68" height="8.32" rx="0.50"/>
<rect fill="#ffffff" x="-3.54" y="-4.12" transform="translate(148.97,93.61) rotate(-0.2)" width="7.08" height="8.24" rx="0.42"/>
<rect fill="#b3b3b3" x="-4.83" y="-4.18" transform="translate(127.32,104.22) rotate(-0.1)" width="9.66" height="8.36" rx="0.47"/>
<rect fill="#4fc2f8" x="165.72" y="100.24" width="32.32" height="8.20" rx="0.40"/>
<rect fill="#ffffff" x="202.05" y="100.25" width="36.80" height="8.20" rx="0.42"/>
<rect fill="#6766cc" x="-6.92" y="-4.14" transform="translate(249.87,104.34) rotate(-0.1)" width="13.84" height="8.28" rx="0.52"/>
<path fill="#565656" d="
  M 122.44 110.66
  L 122.47 118.90
  L 103.46 118.87
  L 103.42 110.72
  L 122.44 110.66
  Z"
/>
<path fill="#b3b3b3" d="
  M 132.24 110.72
  L 132.12 118.94
  L 122.47 118.90
  L 122.44 110.66
  L 132.24 110.72
  Z"
/>
<path fill="#565656" d="
  M 132.24 110.72
  L 142.30 110.64
  A 0.35 0.35 0.0 0 1 142.66 111.00
  L 142.53 118.70
  Q 142.53 118.99 142.24 118.98
  L 132.12 118.94
  L 132.24 110.72
  Z"
/>
<rect fill="#4fc2f8" x="-16.17" y="-4.14" transform="translate(181.91,115.00) rotate(0.2)" width="32.34" height="8.28" rx="0.40"/>
<rect fill="#ffffff" x="202.04" y="110.88" width="36.82" height="8.34" rx="0.48"/>
<rect fill="#6766cc" x="-6.93" y="-4.16" transform="translate(249.83,114.99) rotate(-0.2)" width="13.86" height="8.32" rx="0.58"/>
<rect fill="#b3b3b3" x="-4.83" y="-4.11" transform="translate(127.32,125.47) rotate(-0.1)" width="9.66" height="8.22" rx="0.41"/>
<rect fill="#ffffff" x="187.07" y="121.59" width="65.42" height="8.18" rx="0.47"/>
<rect fill="#6766cc" x="-3.47" y="-4.16" transform="translate(261.49,125.70) rotate(-0.2)" width="6.94" height="8.32" rx="0.64"/>
<rect fill="#ffffff" x="270.50" y="121.63" width="101.86" height="8.14" rx="0.37"/>
<rect fill="#6766cc" x="-3.45" y="-4.20" transform="translate(381.38,125.72) rotate(-0.1)" width="6.90" height="8.40" rx="0.62"/>
<rect fill="#ffffff" x="390.36" y="121.63" width="48.92" height="8.14" rx="0.39"/>
<rect fill="#6766cc" x="444.82" y="121.54" width="6.94" height="8.28" rx="0.57"/>
<rect fill="#ff0166" x="165.76" y="121.76" width="15.74" height="8.02" rx="0.59"/>
<rect fill="#b3b3b3" x="-4.83" y="-4.15" transform="translate(127.32,136.13) rotate(0.1)" width="9.66" height="8.30" rx="0.37"/>
<rect fill="#ffffff" x="-3.53" y="-4.10" transform="translate(169.27,136.41) rotate(-0.1)" width="7.06" height="8.20" rx="0.39"/>
<rect fill="#b3b3b3" x="-4.83" y="-4.15" transform="translate(127.32,146.75) rotate(0.1)" width="9.66" height="8.30" rx="0.42"/>
<rect fill="#4fc2f8" x="185.75" y="143.03" width="36.00" height="8.24" rx="0.40"/>
<rect fill="#ffffff" x="226.09" y="143.04" width="94.58" height="8.22" rx="0.42"/>
<rect fill="#b3b3b3" x="-4.84" y="-4.12" transform="translate(127.33,157.39) rotate(-0.1)" width="9.68" height="8.24" rx="0.49"/>
<rect fill="#4fc2f8" x="185.75" y="153.69" width="36.00" height="8.30" rx="0.46"/>
<rect fill="#ffffff" x="226.44" y="153.72" width="94.54" height="8.20" rx="0.34"/>
<rect fill="#6766cc" x="-4.67" y="-4.13" transform="translate(330.25,157.85) rotate(-0.2)" width="9.34" height="8.26" rx="0.65"/>
<rect fill="#b3b3b3" x="-4.81" y="-4.17" transform="translate(127.32,168.08) rotate(0.3)" width="9.62" height="8.34" rx="0.42"/>
<rect fill="#4fc2f8" x="185.75" y="164.36" width="35.98" height="8.18" rx="0.47"/>
<rect fill="#ffffff" x="226.45" y="164.46" width="94.54" height="8.12" rx="0.34"/>
<rect fill="#6766cc" x="-4.69" y="-4.16" transform="translate(330.29,168.47) rotate(0.1)" width="9.38" height="8.32" rx="0.67"/>
<rect fill="#b3b3b3" x="-4.83" y="-4.13" transform="translate(127.33,178.65) rotate(-0.1)" width="9.66" height="8.26" rx="0.35"/>
<path fill="#565656" d="
  M 103.40 185.21
  L 122.55 185.24
  L 122.42 193.47
  L 103.47 193.47
  L 103.40 185.21
  Z"
/>
<path fill="#b3b3b3" d="
  M 122.55 185.24
  L 132.17 185.31
  L 132.11 193.47
  L 122.42 193.47
  L 122.55 185.24
  Z"
/>
<path fill="#565656" d="
  M 132.17 185.31
  L 142.27 185.25
  Q 142.55 185.25 142.54 185.53
  L 142.52 193.22
  Q 142.52 193.49 142.25 193.49
  L 132.11 193.47
  L 132.17 185.31
  Z"
/>
<rect fill="#ffffff" x="185.75" y="185.50" width="65.16" height="8.22" rx="0.47"/>
<rect fill="#6766cc" x="-4.21" y="-4.13" transform="translate(260.83,189.60) rotate(-0.2)" width="8.42" height="8.26" rx="0.54"/>
<rect fill="#ffffff" x="270.78" y="185.51" width="74.78" height="8.20" rx="0.51"/>
<rect fill="#6766cc" x="351.30" y="185.50" width="53.12" height="8.20" rx="0.58"/>
<rect fill="#b3b3b3" x="122.50" y="195.75" width="9.66" height="8.44" rx="0.37"/>
<rect fill="#ffffff" x="185.75" y="196.31" width="65.16" height="8.20" rx="0.39"/>
<rect fill="#6766cc" x="-4.24" y="-4.14" transform="translate(261.04,200.42) rotate(-0.2)" width="8.48" height="8.28" rx="0.54"/>
<rect fill="#ffffff" x="271.24" y="196.31" width="80.94" height="8.20" rx="0.44"/>
<rect fill="#6766cc" x="358.15" y="196.30" width="47.12" height="8.20" rx="0.42"/>
<rect fill="#ffffff" x="411.23" y="196.31" width="44.96" height="8.20" rx="0.40"/>
<rect fill="#6766cc" x="462.06" y="196.33" width="22.46" height="8.16" rx="0.46"/>
<rect fill="#ffffff" x="-4.33" y="-4.11" transform="translate(494.83,200.40) rotate(-0.1)" width="8.66" height="8.22" rx="0.45"/>
<rect fill="#6766cc" x="-8.95" y="-4.08" transform="translate(514.00,200.42) rotate(0.1)" width="17.90" height="8.16" rx="0.54"/>
<rect fill="#b3b3b3" x="-4.83" y="-4.12" transform="translate(127.33,210.62) rotate(0.1)" width="9.66" height="8.24" rx="0.36"/>
<rect fill="#ffffff" x="185.75" y="207.21" width="65.16" height="8.20" rx="0.37"/>
<rect fill="#6766cc" x="-5.03" y="-4.18" transform="translate(512.28,211.28) rotate(0.1)" width="10.06" height="8.36" rx="0.62"/>
<rect fill="#6766cc" x="-4.18" y="-4.15" transform="translate(260.38,211.32) rotate(0.2)" width="8.36" height="8.30" rx="0.50"/>
<rect fill="#ffffff" x="269.76" y="207.21" width="81.94" height="8.20" rx="0.41"/>
<rect fill="#6766cc" x="356.99" y="207.22" width="30.98" height="8.22" rx="0.46"/>
<rect fill="#ffffff" x="-28.13" y="-4.08" transform="translate(421.36,211.29) rotate(-0.1)" width="56.26" height="8.16" rx="0.39"/>
<rect fill="#6766cc" x="454.73" y="207.20" width="20.12" height="8.20" rx="0.41"/>
<rect fill="#ffffff" x="480.14" y="207.23" width="21.82" height="8.20" rx="0.42"/>
<path fill="#ffffff" d="
  M 774.06 274.59
  L 770.84 282.33
  L 767.92 288.55
  Q 767.81 288.79 767.57 288.70
  L 767.28 288.61
  Q 767.20 288.58 767.22 288.50
  L 768.45 282.38
  L 769.15 274.53
  Q 769.57 267.99 767.43 262.42
  C 765.25 256.76 760.13 252.79 758.07 247.08
  Q 756.19 241.85 757.26 235.71
  Q 759.36 223.67 765.93 209.89
  Q 766.54 208.63 766.40 210.02
  Q 766.31 210.96 766.23 211.89
  Q 765.64 218.29 765.33 224.51
  Q 764.91 232.77 766.03 240.00
  Q 766.74 244.64 768.91 247.43
  C 770.84 249.92 773.96 250.95 775.58 253.68
  Q 777.67 257.19 777.52 260.75
  Q 777.24 267.17 774.06 274.59
  Z"
/>
<rect fill="#b3b3b3" x="-4.83" y="-4.14" transform="translate(127.33,221.32) rotate(0.2)" width="9.66" height="8.28" rx="0.45"/>
<rect fill="#ffffff" x="185.75" y="217.99" width="65.14" height="8.26" rx="0.38"/>
<rect fill="#6766cc" x="-4.22" y="-4.14" transform="translate(262.80,222.12) rotate(-0.1)" width="8.44" height="8.28" rx="0.52"/>
<rect fill="#ffffff" x="274.75" y="217.99" width="74.74" height="8.26" rx="0.34"/>
<rect fill="#6766cc" x="357.26" y="217.98" width="18.00" height="8.30" rx="0.54"/>
<path fill="#ffffff" d="
  M 752.27 274.77
  L 748.88 283.20
  L 744.90 291.03
  L 743.87 292.49
  Q 743.50 293.01 743.53 292.38
  Q 743.55 292.04 743.71 291.58
  L 746.32 283.55
  L 747.60 274.77
  C 747.58 265.50 740.48 265.82 734.37 262.53
  C 728.77 259.50 728.37 252.89 729.26 247.24
  Q 731.03 235.99 736.18 223.92
  Q 736.19 223.90 736.17 223.89
  Q 736.05 223.84 736.14 223.87
  Q 736.15 223.88 736.15 223.89
  C 735.87 231.35 735.02 237.38 736.32 245.73
  C 737.27 251.75 739.92 256.10 745.23 258.45
  C 747.03 259.25 749.21 259.97 750.64 261.27
  C 754.34 264.63 753.66 270.44 752.27 274.77
  Z"
/>
<rect fill="#b3b3b3" x="-4.82" y="-4.17" transform="translate(127.31,231.92) rotate(-0.2)" width="9.64" height="8.34" rx="0.40"/>
<rect fill="#ffffff" x="-3.52" y="-4.11" transform="translate(169.26,232.35) rotate(-0.1)" width="7.04" height="8.22" rx="0.40"/>
<path fill="#ffffff" d="
  M 798.41 275.97
  L 795.18 283.86
  L 793.03 288.36
  Q 791.98 290.55 792.41 288.16
  L 793.25 283.60
  L 793.48 274.94
  C 793.09 270.85 791.40 267.91 788.47 265.47
  C 785.46 262.98 783.68 260.54 783.73 256.54
  Q 783.77 253.87 784.26 251.73
  Q 786.09 243.83 789.87 235.75
  Q 791.22 232.87 790.83 236.02
  C 790.27 240.55 787.86 259.26 794.59 260.13
  Q 799.49 260.77 800.01 265.51
  Q 800.53 270.22 798.41 275.97
  Z"
/>
<rect fill="#b3b3b3" x="122.49" y="238.47" width="9.66" height="8.22" rx="0.37"/>
<path fill="#565656" d="
  M 103.42 248.74
  Q 112.86 249.57 122.62 248.89
  L 122.44 257.36
  L 103.47 257.30
  L 103.42 248.74
  Z"
/>
<path fill="#b3b3b3" d="
  M 122.62 248.89
  L 131.95 249.03
  L 132.07 257.41
  L 122.44 257.36
  L 122.62 248.89
  Z"
/>
<path fill="#565656" d="
  M 131.95 249.03
  L 142.08 249.01
  A 0.54 0.53 -90.0 0 1 142.61 249.55
  L 142.52 256.78
  Q 142.51 257.37 141.93 257.37
  L 132.07 257.41
  L 131.95 249.03
  Z"
/>
<rect fill="#ff0166" x="165.78" y="249.65" width="14.10" height="8.14" rx="0.52"/>
<rect fill="#ffffff" x="184.06" y="249.65" width="89.10" height="8.14" rx="0.43"/>
<rect fill="#b3b3b3" x="-4.82" y="-4.15" transform="translate(127.32,263.84) rotate(0.1)" width="9.64" height="8.30" rx="0.37"/>
<rect fill="#ffffff" x="-3.52" y="-4.08" transform="translate(169.26,264.23) rotate(0.1)" width="7.04" height="8.16" rx="0.37"/>
<rect fill="#4fc2f8" x="-19.01" y="-4.10" transform="translate(203.03,274.23) rotate(-0.1)" width="38.02" height="8.20" rx="0.46"/>
<rect fill="#ffffff" x="226.07" y="270.12" width="95.22" height="8.18" rx="0.41"/>
<rect fill="#b3b3b3" x="-4.83" y="-4.10" transform="translate(127.32,274.48) rotate(-0.1)" width="9.66" height="8.20" rx="0.31"/>
<path fill="#db9c4f" d="
  M 769.15 274.53
  L 768.45 282.38
  L 748.88 283.20
  L 752.27 274.77
  L 769.15 274.53
  Z"
/>
<path fill="#db9c4f" d="
  M 774.06 274.59
  L 793.48 274.94
  L 793.25 283.60
  L 770.84 282.33
  L 774.06 274.59
  Z"
/>
<path fill="#db9c4f" d="
  M 747.60 274.77
  L 746.32 283.55
  C 734.11 284.77 721.10 287.01 710.19 292.99
  L 704.35 290.77
  Q 703.86 290.58 703.93 291.11
  Q 706.77 313.15 719.23 328.93
  Q 721.80 332.18 726.69 337.22
  Q 730.41 341.04 733.91 345.31
  Q 722.84 338.35 715.59 329.67
  Q 705.31 317.37 702.49 300.75
  Q 701.17 292.96 701.75 286.27
  Q 701.78 285.99 701.98 285.79
  Q 703.42 284.36 704.82 283.32
  Q 706.34 282.19 708.97 281.52
  Q 709.45 281.40 709.83 281.10
  Q 710.65 280.46 711.81 280.63
  Q 712.26 280.70 712.60 280.40
  Q 713.80 279.39 715.68 279.60
  Q 716.25 279.67 716.71 279.33
  Q 717.81 278.51 719.42 278.63
  Q 719.96 278.67 720.46 278.46
  Q 723.10 277.33 726.02 277.68
  Q 726.55 277.75 726.91 277.29
  A 1.19 1.19 0.0 0 1 727.78 276.86
  L 734.51 276.56
  A 0.36 0.35 -81.4 0 0 734.83 276.32
  Q 734.89 276.15 735.03 276.06
  Q 735.22 275.95 735.44 275.94
  Q 740.25 275.60 744.95 275.59
  A 1.64 1.63 -61.6 0 0 745.85 275.32
  Q 746.54 274.87 747.60 274.77
  Z"
/>
<path fill="#db9c4f" d="
  M 837.19 288.69
  Q 833.24 291.44 828.75 292.97
  Q 828.24 293.14 827.77 292.71
  C 822.02 289.29 815.00 287.43 808.48 286.10
  Q 802.01 284.77 795.18 283.86
  L 798.41 275.97
  Q 800.95 275.47 803.13 276.01
  Q 805.46 276.59 806.52 276.63
  C 808.01 276.68 810.14 276.49 811.35 277.46
  A 1.07 1.05 -28.4 0 0 812.13 277.68
  Q 815.30 277.30 817.50 278.47
  Q 817.94 278.71 818.44 278.65
  Q 820.65 278.38 822.47 279.43
  Q 822.95 279.71 823.51 279.66
  C 825.05 279.51 826.09 280.29 827.49 280.68
  Q 831.47 281.80 835.10 284.16
  Q 837.65 285.83 837.19 288.69
  Z"
/>
<rect fill="#b3b3b3" x="-4.83" y="-4.17" transform="translate(127.32,285.13) rotate(0.3)" width="9.66" height="8.34" rx="0.44"/>
<rect fill="#4fc2f8" x="184.05" y="280.76" width="38.00" height="8.24" rx="0.50"/>
<rect fill="#ffffff" x="227.19" y="280.76" width="210.52" height="8.24" rx="0.35"/>
<rect fill="#6766cc" x="-5.61" y="-4.14" transform="translate(448.40,284.88) rotate(0.1)" width="11.22" height="8.28" rx="0.53"/>
<rect fill="#ffffff" x="459.18" y="280.75" width="11.20" height="8.26" rx="0.37"/>
<rect fill="#6766cc" x="-5.59" y="-4.13" transform="translate(481.07,284.88) rotate(-0.1)" width="11.18" height="8.26" rx="0.54"/>
<path fill="#70443b" d="
  M 768.45 282.38
  L 767.22 288.50
  Q 767.20 288.58 767.28 288.61
  L 767.57 288.70
  Q 767.81 288.79 767.92 288.55
  L 770.84 282.33
  L 793.25 283.60
  L 792.41 288.16
  Q 791.98 290.55 793.03 288.36
  L 795.18 283.86
  Q 802.01 284.77 808.48 286.10
  C 815.00 287.43 822.02 289.29 827.77 292.71
  Q 827.93 293.12 827.74 293.17
  Q 821.33 295.08 815.68 296.03
  Q 810.43 293.68 803.13 292.60
  Q 784.20 289.80 769.51 289.94
  Q 768.76 289.94 768.12 289.73
  C 767.05 289.36 765.89 289.94 764.78 289.99
  Q 755.02 290.36 744.90 291.03
  L 748.88 283.20
  L 768.45 282.38
  Z"
/>
<path fill="#70443b" d="
  M 746.32 283.55
  L 743.71 291.58
  Q 732.99 292.24 722.60 295.88
  L 710.19 292.99
  C 721.10 287.01 734.11 284.77 746.32 283.55
  Z"
/>
<path fill="#a66515" d="
  M 866.76 287.02
  Q 861.33 284.98 856.75 285.69
  Q 851.14 286.56 842.84 290.12
  Q 847.53 285.71 853.38 284.35
  Q 853.70 284.27 853.92 284.02
  Q 854.09 283.83 854.33 283.81
  Q 857.40 283.60 861.06 283.76
  A 1.58 1.52 -20.9 0 1 862.05 284.18
  Q 862.75 284.83 863.74 284.74
  Q 864.21 284.70 864.30 285.16
  Q 864.42 285.73 865.00 285.58
  Q 865.54 285.44 865.99 285.76
  Q 866.51 286.12 866.76 287.02
  Z"
/>
<path fill="#da8721" d="
  M 866.76 287.02
  Q 866.89 286.96 866.99 286.83
  Q 867.19 286.58 867.44 286.78
  Q 873.47 291.67 874.36 298.38
  Q 875.75 308.90 868.25 317.73
  C 866.76 319.49 865.32 321.63 863.56 323.09
  Q 850.28 334.10 833.50 338.55
  Q 833.34 338.59 833.22 338.70
  Q 833.11 338.79 833.01 338.89
  Q 832.96 338.95 832.88 338.97
  Q 829.01 340.09 824.79 341.01
  C 823.01 341.40 820.67 341.00 819.01 341.76
  Q 817.62 342.39 816.10 342.27
  Q 815.55 342.23 815.21 342.67
  Q 814.72 343.31 813.93 343.24
  Q 813.19 343.17 813.23 343.92
  Q 813.23 344.07 813.25 344.22
  A 0.66 0.66 0.0 0 1 813.05 344.78
  Q 812.10 345.70 812.16 347.14
  Q 812.18 347.63 812.05 348.10
  L 811.08 351.41
  Q 810.93 351.92 810.57 352.30
  Q 810.11 352.79 810.28 353.53
  Q 810.42 354.19 809.75 354.26
  L 808.53 354.39
  Q 807.97 354.46 807.73 353.94
  Q 807.23 352.86 806.25 352.16
  A 1.33 1.31 14.9 0 1 805.69 351.21
  L 805.57 350.08
  Q 805.51 349.57 805.18 349.18
  Q 804.47 348.31 804.65 347.17
  Q 804.73 346.69 804.39 346.34
  Q 803.67 345.62 803.80 344.55
  Q 803.85 344.05 803.36 343.99
  Q 801.73 343.78 801.06 344.91
  A 0.87 0.86 17.3 0 1 800.27 345.32
  L 799.80 345.28
  Q 799.50 345.26 799.29 345.48
  L 795.92 348.97
  A 1.03 1.02 21.1 0 1 795.21 349.28
  L 794.85 349.29
  Q 794.48 349.31 794.22 349.57
  L 790.64 353.15
  Q 790.23 353.56 790.27 354.13
  Q 790.31 354.72 789.84 355.04
  Q 789.33 355.38 789.23 355.99
  Q 789.08 356.95 789.49 358.31
  Q 768.28 363.13 746.91 358.24
  C 746.85 356.88 746.93 355.82 745.92 354.82
  Q 744.71 353.64 743.38 352.62
  Q 738.32 348.74 733.91 345.31
  Q 730.41 341.04 726.69 337.22
  Q 721.80 332.18 719.23 328.93
  Q 706.77 313.15 703.93 291.11
  Q 703.86 290.58 704.35 290.77
  L 710.19 292.99
  L 722.60 295.88
  Q 737.73 298.40 755.25 299.13
  Q 786.15 300.40 815.68 296.03
  Q 821.33 295.08 827.74 293.17
  Q 827.93 293.12 827.77 292.71
  Q 828.24 293.14 828.75 292.97
  Q 833.24 291.44 837.19 288.69
  L 837.24 292.49
  Q 837.25 292.99 837.75 293.02
  Q 839.49 293.14 840.68 291.94
  Q 841.98 290.62 842.84 290.12
  Q 851.14 286.56 856.75 285.69
  Q 861.33 284.98 866.76 287.02
  Z
  M 816.98 332.89
  Q 816.97 332.53 816.49 332.62
  Q 816.26 332.66 816.09 332.82
  Q 810.76 337.49 805.05 341.95
  Q 804.79 342.16 804.99 342.43
  L 805.15 342.64
  Q 805.18 342.69 805.23 342.65
  Q 807.87 340.88 810.51 339.09
  Q 812.84 337.51 815.75 336.83
  Q 822.85 335.16 830.28 333.17
  Q 833.77 332.23 837.08 331.04
  Q 840.41 329.85 843.74 328.66
  Q 848.28 327.03 853.38 322.91
  Q 861.79 317.65 866.96 309.19
  Q 868.22 307.12 868.93 304.78
  C 870.65 299.13 867.70 294.02 861.62 293.34
  C 853.19 292.40 844.06 297.20 837.43 302.29
  Q 836.70 302.86 835.84 303.37
  Q 834.79 303.99 834.53 304.78
  Q 832.70 310.45 829.60 315.32
  Q 824.34 323.59 817.82 330.01
  C 817.01 330.81 816.99 331.79 816.98 332.89
  Z"
/>
<clipPath id="clipping-path-2">
<path d="
  M 816.98 332.89
  Q 816.97 332.53 816.49 332.62
  Q 816.26 332.66 816.09 332.82
  Q 810.76 337.49 805.05 341.95
  Q 804.79 342.16 804.99 342.43
  L 805.15 342.64
  Q 805.18 342.69 805.23 342.65
  Q 807.87 340.88 810.51 339.09
  Q 812.84 337.51 815.75 336.83
  Q 822.85 335.16 830.28 333.17
  Q 833.77 332.23 837.08 331.04
  Q 840.41 329.85 843.74 328.66
  Q 848.28 327.03 853.38 322.91
  Q 861.79 317.65 866.96 309.19
  Q 868.22 307.12 868.93 304.78
  C 870.65 299.13 867.70 294.02 861.62 293.34
  C 853.19 292.40 844.06 297.20 837.43 302.29
  Q 836.70 302.86 835.84 303.37
  Q 834.79 303.99 834.53 304.78
  Q 832.70 310.45 829.60 315.32
  Q 824.34 323.59 817.82 330.01
  C 817.01 330.81 816.99 331.79 816.98 332.89
  Z"/>
</clipPath>
<g stroke-width="5.00" fill="none" stroke-linecap="butt" clip-path="url(#clipping-path-2)">
<path stroke="#c0761b" vector-effect="non-scaling-stroke" d="
  M 816.98 332.89
  Q 816.97 332.53 816.49 332.62
  Q 816.26 332.66 816.09 332.82
  Q 810.76 337.49 805.05 341.95
  Q 804.79 342.16 804.99 342.43
  L 805.15 342.64
  Q 805.18 342.69 805.23 342.65
  Q 807.87 340.88 810.51 339.09
  Q 812.84 337.51 815.75 336.83
  Q 822.85 335.16 830.28 333.17
  Q 833.77 332.23 837.08 331.04
  Q 840.41 329.85 843.74 328.66
  Q 848.28 327.03 853.38 322.91"
/>
</g>
<path fill="#422021" d="
  M 815.68 296.03
  Q 786.15 300.40 755.25 299.13
  Q 737.73 298.40 722.60 295.88
  Q 732.99 292.24 743.71 291.58
  Q 743.55 292.04 743.53 292.38
  Q 743.50 293.01 743.87 292.49
  L 744.90 291.03
  Q 755.02 290.36 764.78 289.99
  C 765.89 289.94 767.05 289.36 768.12 289.73
  Q 768.76 289.94 769.51 289.94
  Q 784.20 289.80 803.13 292.60
  Q 810.43 293.68 815.68 296.03
  Z"
/>
<rect fill="#b3b3b3" x="-4.86" y="-4.22" transform="translate(127.33,295.76) rotate(0.2)" width="9.72" height="8.44" rx="0.56"/>
<rect fill="#ffffff" x="184.05" y="301.97" width="154.16" height="8.28" rx="0.41"/>
<rect fill="#6766cc" x="342.25" y="302.00" width="54.02" height="8.24" rx="0.46"/>
<rect fill="#b3b3b3" x="-4.85" y="-4.13" transform="translate(127.32,306.40) rotate(-0.1)" width="9.70" height="8.26" rx="0.44"/>
<rect fill="#b3b3b3" x="-4.82" y="-4.20" transform="translate(127.32,317.06) rotate(0.3)" width="9.64" height="8.40" rx="0.42"/>
<rect fill="#ffffff" x="184.05" y="312.93" width="154.18" height="8.30" rx="0.59"/>
<rect fill="#6766cc" x="343.58" y="312.92" width="54.06" height="8.28" rx="0.68"/>
<rect fill="#6766cc" x="-4.68" y="-4.15" transform="translate(504.82,317.06) rotate(-0.4)" width="9.36" height="8.30" rx="0.68"/>
<rect fill="#ffffff" x="403.12" y="312.95" width="43.12" height="8.28" rx="0.46"/>
<rect fill="#6766cc" x="-9.36" y="-4.13" transform="translate(461.05,317.08) rotate(-0.1)" width="18.72" height="8.26" rx="0.55"/>
<rect fill="#ffffff" x="475.82" y="312.95" width="18.84" height="8.28" rx="0.52"/>
<path fill="#a66515" d="
  M 853.38 322.91
  Q 848.28 327.03 843.74 328.66
  Q 840.41 329.85 837.08 331.04
  Q 833.77 332.23 830.28 333.17
  Q 822.85 335.16 815.75 336.83
  Q 812.84 337.51 810.51 339.09
  Q 807.87 340.88 805.23 342.65
  Q 805.18 342.69 805.15 342.64
  L 804.99 342.43
  Q 804.79 342.16 805.05 341.95
  Q 810.76 337.49 816.09 332.82
  Q 816.26 332.66 816.49 332.62
  Q 816.97 332.53 816.98 332.89
  L 823.40 332.70
  A 0.68 0.67 -75.3 0 0 823.96 332.37
  Q 824.16 332.03 824.53 331.99
  Q 826.77 331.76 828.90 331.81
  Q 829.32 331.83 829.63 331.54
  Q 830.84 330.47 832.74 330.85
  Q 833.29 330.95 833.68 330.56
  Q 834.83 329.43 836.68 329.86
  Q 837.32 330.00 837.73 329.49
  Q 838.57 328.47 839.94 328.82
  Q 840.53 328.97 840.86 328.45
  Q 841.48 327.47 842.69 327.79
  Q 843.21 327.92 843.70 327.69
  Q 843.87 327.61 843.88 327.45
  Q 843.93 326.84 844.54 326.86
  L 845.23 326.88
  A 0.70 0.70 0.0 0 0 845.90 326.42
  Q 846.10 325.86 846.68 325.87
  Q 847.09 325.88 847.45 325.70
  L 853.38 322.91
  Z"
/>
<rect fill="#b3b3b3" x="-4.85" y="-4.14" transform="translate(127.33,327.64) rotate(-0.2)" width="9.70" height="8.28" rx="0.38"/>
<rect fill="#6766cc" x="251.14" y="323.94" width="11.36" height="8.28" rx="0.51"/>
<rect fill="#ffffff" x="268.26" y="323.89" width="41.08" height="8.32" rx="0.44"/>
<rect fill="#ff0166" x="-8.03" y="-3.95" transform="translate(192.12,328.07) rotate(-0.1)" width="16.06" height="7.90" rx="0.52"/>
<rect fill="#ffffff" x="-19.68" y="-4.14" transform="translate(225.68,328.07) rotate(-0.1)" width="39.36" height="8.28" rx="0.53"/>
<path fill="#565656" d="
  M 103.42 334.26
  L 122.43 334.28
  L 122.40 342.47
  L 103.56 342.44
  Q 102.78 338.23 103.42 334.26
  Z"
/>
<path fill="#b3b3b3" d="
  M 122.43 334.28
  L 132.32 334.35
  L 132.18 342.45
  L 122.40 342.47
  L 122.43 334.28
  Z"
/>
<path fill="#565656" d="
  M 132.18 342.45
  L 132.32 334.35
  L 142.28 334.27
  Q 142.54 334.27 142.54 334.52
  L 142.57 342.23
  A 0.26 0.26 0.0 0 1 142.31 342.49
  L 132.18 342.45
  Z"
/>
<rect fill="#ffffff" x="204.11" y="334.86" width="146.40" height="8.28" rx="0.26"/>
<rect fill="#6766cc" x="357.03" y="334.94" width="25.74" height="8.14" rx="0.54"/>
<rect fill="#ffffff" x="389.26" y="334.84" width="17.42" height="8.34" rx="0.52"/>
<rect fill="#6766cc" x="-4.37" y="-4.14" transform="translate(417.46,339.00) rotate(0.1)" width="8.74" height="8.28" rx="0.67"/>
<rect fill="#b3b3b3" x="-4.82" y="-4.18" transform="translate(127.32,348.94) rotate(-0.1)" width="9.64" height="8.36" rx="0.39"/>
<rect fill="#ffffff" x="165.74" y="344.86" width="7.02" height="8.28" rx="0.37"/>
<path fill="#565656" d="
  M 103.38 356.93
  L 639.73 356.72
  L 639.66 369.59
  Q 639.66 370.00 639.25 370.00
  L 103.76 369.99
  A 0.50 0.50 0.0 0 1 103.26 369.49
  L 103.38 356.93
  Z"
/>
<path fill="#a66515" d="
  M 746.91 358.24
  Q 768.28 363.13 789.49 358.31
  Q 791.57 357.42 794.44 357.95
  Q 794.98 358.05 795.22 358.54
  Q 795.29 358.70 795.46 358.76
  Q 795.78 358.87 796.12 358.81
  Q 798.72 358.37 800.43 359.50
  Q 800.89 359.80 801.45 359.73
  Q 802.98 359.51 803.55 361.01
  C 803.23 361.48 802.89 361.94 802.30 362.09
  Q 797.99 363.15 793.64 363.61
  Q 765.68 366.55 737.00 363.04
  Q 735.44 362.85 731.67 361.37
  Q 732.53 360.75 732.84 360.17
  Q 733.17 359.54 733.84 359.78
  Q 734.44 360.00 734.84 359.41
  Q 735.18 358.93 735.76 358.89
  L 739.34 358.70
  A 0.70 0.69 14.7 0 0 739.88 358.39
  L 740.03 358.17
  Q 740.13 358.02 740.31 357.99
  Q 743.99 357.45 746.91 358.24
  Z"
/>
<rect fill="#b3b3b3" x="122.53" y="359.56" width="73.88" height="7.18" rx="0.39"/>
<rect fill="#b3b3b3" x="553.68" y="359.56" width="54.26" height="7.16" rx="0.52"/>
<path fill="#db9c4f" d="
  M 803.55 361.01
  Q 804.09 361.14 804.05 362.19
  Q 804.03 362.70 804.45 363.01
  L 804.73 363.22
  Q 805.50 363.79 804.56 364.00
  Q 802.97 364.35 802.21 365.84
  Q 801.97 366.30 801.46 366.28
  Q 799.91 366.21 798.59 366.64
  Q 796.92 367.19 795.82 367.23
  Q 793.50 367.32 791.24 367.70
  Q 788.46 368.17 786.71 368.23
  Q 782.20 368.37 778.03 368.42
  Q 777.52 368.43 777.12 368.75
  Q 776.81 368.99 776.42 368.99
  Q 768.33 369.08 759.89 369.00
  C 759.47 368.99 759.17 368.87 758.83 368.64
  Q 758.53 368.43 758.16 368.43
  Q 751.56 368.43 744.70 368.09
  Q 744.22 368.07 743.88 367.74
  Q 743.51 367.38 743.00 367.39
  Q 741.02 367.39 738.99 367.26
  Q 738.10 367.20 736.60 366.61
  Q 735.28 366.10 734.07 366.23
  A 2.20 2.19 -2.8 0 1 731.64 364.03
  L 731.67 361.37
  Q 735.44 362.85 737.00 363.04
  Q 765.68 366.55 793.64 363.61
  Q 797.99 363.15 802.30 362.09
  C 802.89 361.94 803.23 361.48 803.55 361.01
  Z"
/>
<path fill="#4a7e67" d="
  M 9.72 400.16
  Q 14.59 400.44 18.25 400.44
  Q 373.88 400.43 729.50 400.42
  Q 730.78 400.42 731.83 400.97
  Q 712.27 407.64 692.69 413.85
  Q 691.49 414.23 690.29 414.38
  Q 689.80 414.44 689.36 414.66
  Q 688.27 415.22 686.91 415.22
  Q 370.49 415.26 57.94 415.18
  A 19.48 19.28 53.9 0 1 51.83 414.19
  L 9.72 400.16
  Z"
/>
</svg>
